<mxfile host="65bd71144e">
    <diagram id="Vlq2TpfWjs-CcTUWxzxu" name="Page-1">
        <mxGraphModel dx="1002" dy="563" grid="1" gridSize="10" guides="1" tooltips="1" connect="1" arrows="1" fold="1" page="1" pageScale="1" pageWidth="850" pageHeight="1100" math="0" shadow="0">
            <root>
                <mxCell id="0"/>
                <mxCell id="1" parent="0"/>
                <mxCell id="3" style="edgeStyle=none;html=1;" edge="1" parent="1" source="2" target="4">
                    <mxGeometry relative="1" as="geometry">
                        <mxPoint x="520" y="210" as="targetPoint"/>
                    </mxGeometry>
                </mxCell>
                <mxCell id="2" value="shopping cart:&lt;div&gt;1. apples&lt;/div&gt;&lt;div&gt;2. noodles&amp;nbsp;&lt;/div&gt;&lt;div&gt;3. pizza&amp;nbsp;&lt;/div&gt;&lt;div&gt;4. burger&amp;nbsp;&lt;/div&gt;&lt;div&gt;5. oranges&amp;nbsp;&lt;/div&gt;&lt;div&gt;6. bananas&amp;nbsp;&lt;/div&gt;&lt;div&gt;7. french fries&amp;nbsp;&lt;/div&gt;&lt;div&gt;8. cold drinks&amp;nbsp;&lt;/div&gt;&lt;div&gt;9. grapes&amp;nbsp;&lt;/div&gt;&lt;div&gt;10. blueberries&amp;nbsp;&lt;/div&gt;" style="whiteSpace=wrap;html=1;aspect=fixed;fontSize=20;rounded=0;" vertex="1" parent="1">
                    <mxGeometry x="70" y="70" width="280" height="280" as="geometry"/>
                </mxCell>
                <mxCell id="4" value="switch case&amp;nbsp;" style="whiteSpace=wrap;html=1;aspect=fixed;" vertex="1" parent="1">
                    <mxGeometry x="460" y="60" width="100" height="100" as="geometry"/>
                </mxCell>
            </root>
        </mxGraphModel>
    </diagram>
</mxfile>